<svg version="1.2" xmlns="http://www.w3.org/2000/svg" viewBox="0 0 530 530" width="512" height="512">
	<title>Lenz Logo SVG</title>
	<style>
		.s0 { fill: #a347e1;stroke: #ffffff;stroke-width: 35 } 
		.s1 { fill: #ffffff } 
	</style>
	<path id="Shape 1" class="s0" d="m266.9 25.1c4.6 0.1 10.6 0.9 13.4 1.7 2.7 0.7 14.6 5.4 26.2 10.3 11.7 4.9 29.3 12.3 39.2 16.5 9.9 4.2 27.5 11.7 39.1 16.6 11.7 5 32 13.6 45.2 19.1 13.2 5.6 27.1 11.7 30.9 13.6 3.8 1.9 9.3 5.7 12.3 8.4 3 2.8 7.5 8.1 10 11.9 2.5 3.8 5.2 9 6.2 11.5 0.9 2.6 2.2 8.2 2.8 12.5 0.8 5.4 1 11.9 0.6 21.2-0.4 7.3-1.1 17.7-1.6 23-0.4 5.3-1.2 12.2-1.7 15.2-0.5 3.1-1.6 9.7-2.4 14.8-0.8 5-2.3 13.1-3.3 17.9-1 4.8-3.1 13.5-4.5 19.4-1.4 5.8-3.8 14.9-5.4 20.2-1.5 5.4-4 13-5.5 17.1-1.4 4-4.8 12.5-7.5 18.9-2.6 6.3-8.1 17.9-12 25.8-4 7.8-10 18.8-13.4 24.4-3.4 5.6-9.5 15.1-13.6 21.2-4 6.1-10.4 15-14.1 19.8-3.7 4.8-10.8 13.2-15.8 18.6-4.9 5.5-12.5 13.1-16.8 17.1-4.3 4-11 9.8-14.8 12.8-3.8 3.1-9 7.2-11.5 9.2-2.5 1.9-9.4 6.6-15.2 10.5-5.8 3.9-14.5 9.3-19.3 12.1-4.9 2.9-12.7 7.2-17.6 9.8-4.8 2.6-11.6 5.7-15.2 6.8-5.2 1.8-8.3 2.2-17 2.1-8.7 0-11.8-0.4-17.1-2.2-3.5-1.2-11-4.6-16.5-7.7-5.6-3-13.1-7.1-16.6-9.2-3.6-2.1-10.6-6.4-15.7-9.7-5.1-3.3-12.5-8.5-16.6-11.5-4-3.1-10.7-8.3-14.7-11.6-4.1-3.3-12.1-10.6-17.9-16.2-5.7-5.6-13.8-14.1-18-18.9-4.1-4.8-9.4-11.3-11.7-14.3-2.3-3-7.5-10.5-11.6-16.6-4-6.1-8.9-13.5-10.8-16.6-2-3-6.3-10.5-9.7-16.6-3.4-6-8.3-15.6-11-21.1-2.7-5.6-7.6-16.8-10.9-24.9-3.2-8.1-7.5-20.2-9.5-26.8-1.9-6.5-5-17.9-6.8-25.3-1.7-7.3-3.9-16.9-4.7-21.2-0.7-4.3-1.8-9.9-2.3-12.4-0.5-2.6-1.5-9.2-2.2-14.8-0.7-5.5-1.8-14.1-2.3-19.1-0.6-4.9-1-16.3-1-25.3 0-11.3 0.4-18.2 1.4-22.1 0.7-3.2 2.4-8 3.8-10.6 1.3-2.7 4.1-7.4 6.3-10.4 2.1-3.1 6.3-7.6 9.3-10 3-2.5 7.7-5.7 10.5-7 2.8-1.4 19.8-8.8 37.8-16.4 18-7.7 41-17.4 51.1-21.7 10.2-4.3 33.4-14.1 51.6-21.8 18.3-7.8 34.5-14.5 36-15 1.5-0.5 5.2-1.5 8.3-2.1 3.2-0.8 8.9-1.1 13.8-0.9zm-1.8 30.9c5.8 0 7.6 0.5 19.8 5.6 7.3 3 35.7 15.1 63.1 26.8 27.4 11.6 59.5 25.3 71.4 30.4 11.9 5.1 23.5 10.2 25.8 11.3 2.3 1.2 5.6 3.3 7.3 4.7 1.7 1.5 4 4.6 5.2 6.8 1.1 2.3 2.6 6.7 3.2 9.7 0.8 3.8 0.9 9.1 0.5 16.6-0.3 6.1-1 15.6-1.5 21.2-0.5 5.6-1.3 12.8-1.9 16.1-0.5 3.3-1.5 9.5-2.3 13.8-0.7 4.4-2.4 12.7-3.7 18.5-1.3 5.8-3.6 15.3-5.1 21.2-1.6 5.8-4.5 15.5-6.5 21.6-2 6.1-6 16.5-8.7 23.1-2.8 6.6-8.7 19-13.1 27.6-4.5 8.6-12 21.8-16.8 29.3-4.8 7.6-11.5 17.5-15 22.2-3.5 4.6-7.8 10.1-9.6 12.1-1.8 2-6.4 7.1-10.2 11.4-3.9 4.2-11.1 11.3-16.1 15.6-5 4.4-13.1 11.1-18 14.8-4.9 3.7-12.8 9.4-17.6 12.5-4.8 3.2-12.7 8.2-17.5 11.1-4.8 2.8-12.7 7.1-17.5 9.5-8 4-9.1 4.3-15.6 4.3-6.7 0-7.5-0.2-16.7-4.9-5.3-2.7-14.4-7.9-20.3-11.4-5.8-3.6-13.1-8.2-16.1-10.2-3-2-10.7-7.7-17-12.5-6.5-4.9-17.9-15-25.9-23.1-8-7.9-17.5-18.3-21.3-23.1-3.8-4.8-9.5-12.7-12.8-17.5-3.2-4.8-9.3-14.6-13.5-21.7-4.3-7.1-10.5-18.5-13.8-25.3-3.3-6.8-8.2-17.8-10.9-24.4-2.7-6.6-5.9-15.1-7.2-18.9-1.3-3.8-3.6-11.5-5.1-17.1-1.5-5.5-4-15.9-5.6-23-1.5-7.1-3.8-18.9-5-26.3-1.3-7.3-2.8-17.9-3.3-23.5-0.6-5.5-1.3-16.7-1.6-24.8-0.5-13.8-0.4-15.2 1.5-20.3 1.2-3.1 3.1-6.8 4.4-8.3 1.3-1.5 3.9-3.8 5.7-5 1.8-1.3 11-5.6 20.4-9.6 9.3-4 31.5-13.4 49.3-20.9 17.7-7.5 48.8-20.7 69.1-29.2 20.3-8.6 37.5-15.9 38.2-16.2 0.8-0.3 4.3-0.5 7.9-0.6z"/>
	<path id="L" class="s1" aria-label="L"  d="m347.1 372h-164.7v-30l22.1-4.7v-143.7l-22.1-4.7v-30.2h22.1 51.4 27v30.2l-27 4.7v139h50.7l1.2-29.7h39.3z"/>
</svg>